<?xml version="1.0" encoding="utf-8"?>
<!-- Generator: Adobe Illustrator 18.1.1, SVG Export Plug-In . SVG Version: 6.00 Build 0)  -->
<svg version="1.1" id="Layer_1" xmlns="http://www.w3.org/2000/svg" xmlns:xlink="http://www.w3.org/1999/xlink" x="0px" y="0px"
	 viewBox="0 102.6 300.2 94.8" enable-background="new 0 102.6 300.2 94.8" xml:space="preserve">
<g opacity="0.8">
	<path fill="#FFFFFF" d="M296.8,161.5c-1.9,0-3.4,1.5-3.4,3.4c0,1.9,1.5,3.4,3.4,3.4s3.4-1.5,3.4-3.4
		C300,162.9,298.6,161.5,296.8,161.5z M296.8,167.8c-1.7,0-2.9-1.4-2.9-2.9c0-1.7,1.4-2.9,2.9-2.9c1.7,0,2.9,1.4,2.9,2.9
		S298.3,167.8,296.8,167.8z"/>
	<path fill="#FFFFFF" d="M297.8,164.8c0.3-0.3,0.5-0.5,0.5-1c0-0.9-0.7-1-1.2-1h-1.7v3.8h0.5v-1.5h1.2c0.7,0,0.5,0.7,0.7,1.2v0.5
		h0.5c-0.2-0.3-0.2-0.3-0.2-0.9C298.1,164.9,298.1,164.9,297.8,164.8z M297.1,164.6h-1.2v-1.2h1.2c0.3,0,0.7,0,0.7,0.7
		C297.8,164.4,297.4,164.6,297.1,164.6z"/>
	<path fill="#FFFFFF" d="M257,161h-36.9v36H257C311.4,197,311.4,161,257,161z M252.9,186.1h-3.9v-13.8h3.9
		C273.9,172.3,273.9,186.1,252.9,186.1z"/>
	<path fill="#FFFFFF" d="M132.7,160.2c-15.7,0-28.5,8.4-28.5,18.6c0,10.2,12.8,18.6,28.5,18.6c15.5,0,28.3-8.4,28.3-18.6
		C161.2,168.5,148.4,160.2,132.7,160.2z M132.7,185.9c-5.3,0-9.7-3.2-9.7-7.2c0-3.9,4.4-7.2,9.7-7.2c5.3,0,9.7,3.2,9.7,7.2
		C142.4,182.7,138.1,185.9,132.7,185.9z"/>
	<path fill="#FFFFFF" d="M26.6,178.6c5.6-1.9,5.1-8.5,5.1-8.5c0-9.6-14.3-9.2-14.3-9.2H0v36h19c8.2,0,14.9-3.1,14.9-9.7
		C33.8,180.5,26.6,178.6,26.6,178.6z M13.1,169.7h3.4c3.6,0,3.6,5.5,0,5.5h-3.4V169.7z M17.1,188.5h-3.9v-6h3.9
		C22,182.5,22,188.5,17.1,188.5z"/>
	<path fill="#FFFFFF" d="M271.5,155.2c4.6,0,9.6-2.7,16.1-7.7c0.7-0.5,1.5-1.2,2.2-1.9l6.3,8.5h3.6c0,0-3.4-4.6-7.9-10.4
		c4.1-3.9,6.7-7.7,6.7-7.7l-2-1.2c-2.2,2.6-4.4,4.6-6.5,6.5c-4.8-6.3-10.1-13.5-12.6-16.7c5.1-3.6,9.6-7.3,9.6-12
		c0-5-3.8-9.7-8.9-9.7s-9.7,4.3-9.7,9.6s5.1,11.3,5.1,11.3c-1.2,0.7-2.4,1.5-3.8,2.4c-5.6,3.8-11.4,7.9-11.4,16.6
		C258.3,151.5,266.9,155.2,271.5,155.2z M271.3,113.2c0-2.2,1.2-6.8,6.3-6.8c5.1,0,6.1,5,6.1,6.5s-0.3,3.1-2.7,5.6
		c-1.4,1.5-3.1,2.6-5.5,4.1C272.7,118.3,271.3,115.3,271.3,113.2z M267,132c2.2-1.7,3.6-2.6,8.2-5.8l12.6,17.1
		c-7.2,6.3-12.8,8.7-16.9,8.7c-5.5,0-9.7-4.8-9.7-10.1C261.4,136.6,264.7,133.9,267,132z"/>
	<path fill="#FFFFFF" d="M146.7,154.2l6.7-16.6H175l6.7,16.6h3.2l-20.8-51.6l-20.7,51.6H146.7z M164.1,110.5l9.7,24.1h-19.3
		L164.1,110.5z"/>
	<path fill="#FFFFFF" d="M73.1,104.3H61.8v49.9h10.6C105.7,154.2,104.8,104.3,73.1,104.3z M65.1,107.4h7.5c28.5,0,28.2,43.5,0,43.5
		h-7.5V107.4z"/>
	<path fill="#FFFFFF" d="M145.6,140.2c0-10.4-9.9-12.5-9.9-12.5c6.1-3.4,5.5-11.3,5.5-11.3c-0.5-12.1-12.6-12.1-12.6-12.1h-11.3
		v49.9h12.5C137.3,154.2,145.6,150.8,145.6,140.2z M120,107.4h8.4c13.1,0,13.1,19.6,0,19.6H120V107.4z M120,130.1h11.1
		c15.5,0,15.2,20.8-0.3,20.8H120V130.1z"/>
	<path fill="#FFFFFF" d="M28.9,140.2c0-10.4-9.9-12.5-9.9-12.5c6.3-3.4,5.5-11.3,5.5-11.3c-0.5-12.1-12.6-12.1-12.6-12.1H0.3v49.9
		h12.5C20.5,154.2,28.9,150.8,28.9,140.2z M3.2,107.4h8.4c13.1,0,13.1,19.6,0,19.6H3.2V107.4z M3.2,130.1h11.1
		c15.7,0,15.2,20.8-0.3,20.8H3.2V130.1z"/>
	<path fill="#FFFFFF" d="M198.4,174.5c0,0,0.5,3.2,1.2,4.8c0.7,1.5-0.3,1.7-1.2,0.9L181.3,161h-19.5v36h19v-12.8c0,0-0.3-3.2-1-4.8
		c-0.7-1.5,0.3-1.9,1.2-0.9l17.2,18.3h19.1V161h-19V174.5z"/>
	<polygon fill="#FFFFFF" points="94.4,161 89,171.3 83.5,161 36,161 36,197 65.4,197 65.4,187.3 51.6,187.3 51.6,183.6 63.7,183.6 
		63.7,174.3 51.6,174.3 51.6,170.7 64.7,170.7 64.7,162.4 80.4,181.2 80.4,197 97.3,197 97.3,181.7 114.1,161 	"/>
	<polygon fill="#FFFFFF" points="209.8,128.4 240.2,128.4 240.2,154.2 243.1,154.2 243.1,104.3 240.2,104.3 240.2,125.3 
		209.8,125.3 209.8,104.3 206.9,104.3 206.9,154.2 209.8,154.2 	"/>
	<polygon fill="#FFFFFF" points="188,154.2 190.9,154.2 190.9,107.1 203.9,107.1 203.9,104.3 175.2,104.3 175.2,107.1 188,107.1 	
		"/>
	<polygon fill="#FFFFFF" points="56.5,151.1 35.9,151.1 35.9,128.4 56,128.4 56,125.5 35.9,125.5 35.9,107.4 56.5,107.4 56.5,104.3 
		32.8,104.3 32.8,154.2 56.5,154.2 	"/>
</g>
</svg>
