<?xml version="1.0" encoding="utf-8"?>
<!-- Generator: Adobe Illustrator 18.1.1, SVG Export Plug-In . SVG Version: 6.00 Build 0)  -->
<svg version="1.1" id="Layer_1" xmlns="http://www.w3.org/2000/svg" xmlns:xlink="http://www.w3.org/1999/xlink" x="0px" y="0px"
	 viewBox="0 154.6 152 48" enable-background="new 0 154.6 152 48" xml:space="preserve">
<g>
	<path fill="#FFFFFF" d="M150.3,184.4c-1,0-1.7,0.8-1.7,1.7s0.8,1.7,1.7,1.7s1.7-0.8,1.7-1.7C151.9,185.1,151.2,184.4,150.3,184.4z
		 M150.3,187.6c-0.9,0-1.5-0.7-1.5-1.5c0-0.9,0.7-1.5,1.5-1.5c0.9,0,1.5,0.7,1.5,1.5S151,187.6,150.3,187.6z"/>
	<path fill="#FFFFFF" d="M150.8,186.1c0.2-0.2,0.3-0.3,0.3-0.5c0-0.5-0.4-0.5-0.6-0.5h-0.9v1.9h0.3v-0.8h0.6c0.4,0,0.3,0.4,0.4,0.6
		v0.3h0.3c-0.1-0.2-0.1-0.2-0.1-0.5C150.9,186.1,150.9,186.1,150.8,186.1z M150.4,186h-0.6v-0.6h0.6c0.2,0,0.4,0,0.4,0.4
		C150.8,185.9,150.6,186,150.4,186z"/>
	<path fill="#FFFFFF" d="M130.1,184.2h-18.7v18.2h18.7C157.7,202.4,157.7,184.2,130.1,184.2z M128.1,196.9h-2v-7h2
		C138.7,189.9,138.7,196.9,128.1,196.9z"/>
	<path fill="#FFFFFF" d="M67.2,183.8c-7.9,0-14.4,4.3-14.4,9.4c0,5.2,6.5,9.4,14.4,9.4c7.8,0,14.3-4.3,14.3-9.4
		C81.6,188,75.1,183.8,67.2,183.8z M67.2,196.8c-2.7,0-4.9-1.6-4.9-3.6c0-2,2.2-3.6,4.9-3.6c2.7,0,4.9,1.6,4.9,3.6
		S69.9,196.8,67.2,196.8z"/>
	<path fill="#FFFFFF" d="M13.5,193.1c2.8-1,2.6-4.3,2.6-4.3c0-4.9-7.2-4.7-7.2-4.7H0v18.2h9.6c4.2,0,7.5-1.6,7.5-4.9
		C17.1,194,13.5,193.1,13.5,193.1z M6.6,188.6h1.7c1.8,0,1.8,2.8,0,2.8H6.6V188.6z M8.7,198.1h-2v-3h2
		C11.1,195.1,11.1,198.1,8.7,198.1z"/>
	<path fill="#FFFFFF" d="M137.5,181.2c2.3,0,4.9-1.4,8.2-3.9c0.4-0.3,0.8-0.6,1.1-1l3.2,4.3h1.8c0,0-1.7-2.3-4-5.3
		c2.1-2,3.4-3.9,3.4-3.9l-1-0.6c-1.1,1.3-2.2,2.3-3.3,3.3c-2.4-3.2-5.1-6.8-6.4-8.5c2.6-1.8,4.9-3.7,4.9-6.1c0-2.5-1.9-4.9-4.5-4.9
		c-2.6,0-4.9,2.2-4.9,4.9c0,2.7,2.6,5.7,2.6,5.7c-0.6,0.4-1.2,0.8-1.9,1.2c-2.8,1.9-5.8,4-5.8,8.4
		C130.8,179.4,135.1,181.2,137.5,181.2z M137.4,160c0-1.1,0.6-3.4,3.2-3.4s3.1,2.5,3.1,3.3c0,0.8-0.2,1.6-1.4,2.8
		c-0.7,0.8-1.6,1.3-2.8,2.1C138.1,162.5,137.4,161,137.4,160z M135.2,169.5c1.1-0.9,1.8-1.3,4.2-2.9l6.4,8.7
		c-3.6,3.2-6.5,4.4-8.6,4.4c-2.8,0-4.9-2.4-4.9-5.1C132.4,171.8,134,170.4,135.2,169.5z"/>
	<path fill="#FFFFFF" d="M74.3,180.7l3.4-8.4h10.9l3.4,8.4h1.6l-10.5-26.1l-10.5,26.1H74.3z M83.1,158.6l4.9,12.2h-9.8L83.1,158.6z"
		/>
	<path fill="#FFFFFF" d="M37,155.5h-5.7v25.3h5.4C53.5,180.7,53.1,155.5,37,155.5z M33,157h3.8c14.4,0,14.3,22,0,22H33V157z"/>
	<path fill="#FFFFFF" d="M73.7,173.6c0-5.3-5-6.3-5-6.3c3.1-1.7,2.8-5.7,2.8-5.7c-0.3-6.1-6.4-6.1-6.4-6.1h-5.7v25.3h6.3
		C69.5,180.7,73.7,179,73.7,173.6z M60.8,157H65c6.6,0,6.6,9.9,0,9.9h-4.3V157z M60.8,168.5h5.6c7.8,0,7.7,10.5-0.2,10.5h-5.5V168.5
		z"/>
	<path fill="#FFFFFF" d="M14.6,173.6c0-5.3-5-6.3-5-6.3c3.2-1.7,2.8-5.7,2.8-5.7c-0.3-6.1-6.4-6.1-6.4-6.1H0.2v25.3h6.3
		C10.4,180.7,14.6,179,14.6,173.6z M1.6,157h4.3c6.6,0,6.6,9.9,0,9.9H1.6V157z M1.6,168.5h5.6c7.9,0,7.7,10.5-0.2,10.5H1.6V168.5z"
		/>
	<path fill="#FFFFFF" d="M100.5,191c0,0,0.3,1.6,0.6,2.4c0.4,0.8-0.2,0.9-0.6,0.5l-8.7-9.7h-9.9v18.2h9.6v-6.5c0,0-0.2-1.6-0.5-2.4
		c-0.4-0.8,0.2-1,0.6-0.5l8.7,9.3h9.7v-18.1h-9.6L100.5,191L100.5,191z"/>
	<polygon fill="#FFFFFF" points="47.8,184.2 45.1,189.4 42.3,184.2 18.2,184.2 18.2,202.4 33.1,202.4 33.1,197.5 26.1,197.5 
		26.1,195.6 32.3,195.6 32.3,190.9 26.1,190.9 26.1,189.1 32.8,189.1 32.8,184.9 40.7,194.4 40.7,202.4 49.3,202.4 49.3,194.7 
		57.8,184.2 	"/>
	<polygon fill="#FFFFFF" points="106.2,167.7 121.6,167.7 121.6,180.7 123.1,180.7 123.1,155.5 121.6,155.5 121.6,166.1 
		106.2,166.1 106.2,155.5 104.8,155.5 104.8,180.7 106.2,180.7 	"/>
	<polygon fill="#FFFFFF" points="95.2,180.7 96.7,180.7 96.7,156.9 103.2,156.9 103.2,155.5 88.7,155.5 88.7,156.9 95.2,156.9 	"/>
	<polygon fill="#FFFFFF" points="28.6,179.2 18.2,179.2 18.2,167.7 28.4,167.7 28.4,166.2 18.2,166.2 18.2,157 28.6,157 28.6,155.5 
		16.6,155.5 16.6,180.7 28.6,180.7 	"/>
</g>
</svg>
