<?xml version="1.0" encoding="utf-8"?>
<!-- Generator: Adobe Illustrator 18.1.1, SVG Export Plug-In . SVG Version: 6.00 Build 0)  -->
<svg version="1.1" id="Layer_1" xmlns="http://www.w3.org/2000/svg" xmlns:xlink="http://www.w3.org/1999/xlink" x="0px" y="0px"
	 viewBox="0 177.8 152 32.4" enable-background="new 0 177.8 152 32.4" xml:space="preserve">
<g>
	<g>
		<path fill="#FFFFFF" d="M0,194c0-9,7.3-16.2,16.2-16.2s16.2,7.3,16.2,16.2s-7.3,16.2-16.2,16.2S0,202.9,0,194z M16.2,204.8
			c5.9,0,10.8-4.8,10.8-10.8s-4.8-10.8-10.8-10.8S5.4,188,5.4,194S10.3,204.8,16.2,204.8z M16.2,199.5c3.1,0,5.6-2.5,5.6-5.6
			c0-3-2.5-5.6-5.6-5.6c-3.1,0-5.6,2.5-5.6,5.6C10.6,197,13.1,199.5,16.2,199.5z"/>
	</g>
	<g>
		<g>
			<polygon fill="#FFFFFF" points="37.7,182.3 56.2,182.3 56.2,187 49.9,187 49.9,205.7 44.2,205.7 44.2,187 37.7,187 			"/>
			<path fill="#FFFFFF" d="M73.5,182.3c0,0,4.3,0,11,0c6.2,0,7.1,4.3,7.1,6.7c0,3.6-3.1,5.4-3.4,5.5c0,0,2.7,1,2.7,4.1v4.4
				c0,1.7,1.1,2.2,1.3,2.6h-4.5c-2.1-0.3-2.1-1.9-2.1-2.9V199c-0.1-0.9-0.4-1.9-2.2-2h-4.5v8.6h-5.4V182.3z M84.1,187h-5.2v4.7
				c0,0,4.1,0,4.7,0c1.6-0.1,2.9-0.8,2.9-2.3C86.4,187.6,85.3,187,84.1,187z"/>
			<polygon fill="#FFFFFF" points="115.4,182.3 115.4,205.7 132.2,205.7 132.2,200.9 120.9,200.9 120.9,195.6 130.6,195.6 
				130.6,191.2 120.9,191.2 120.9,187 132.2,187 132.2,182.3 			"/>
			<polygon fill="#FFFFFF" points="133.1,187 139.7,187 139.7,205.7 145.2,205.7 145.2,187 152,187 152,182.3 133.1,182.3 			"/>
			<path fill="#FFFFFF" d="M58.9,182.3h6l8.2,23.4h-5.8l-1.7-4.9h-6.9l-1.6,4.9h-5.7L58.9,182.3z M62,190.6l-2,6h4.1L62,190.6z"/>
			<path fill="#FFFFFF" d="M113.4,192.7h-10v4.5h4.8c0,1,0.2,1.9-1,3.2c-0.4,0.5-1.7,1.4-3.5,1.4c-1.6,0-2.6-0.5-3.6-1.3
				c-2.1-1.8-2.6-5.2-2.6-6.9c0-2.2,0.9-7.7,6.3-8c0,0,3.6-0.3,4.6,4.2h5.1c-0.1-2.2-2.7-8.5-9.6-8.5c-2.4,0-5.4,0.7-8,3.2
				c-1.8,1.8-3.5,4.9-3.5,9.2c0,4.7,1.7,7.8,3.3,9.4c2.8,2.9,5.6,3.2,7,3.2c1.2,0,3.4-0.2,6.2-2.1l0.8,1.3h3.8L113.4,192.7
				L113.4,192.7z"/>
		</g>
		<g>
			<path fill="#FFFFFF" d="M148.6,205.1h-0.3v-1.8h0.7c0.4,0,0.7,0.2,0.7,0.5c0,0.4-0.2,0.5-0.5,0.5l0.5,0.8h-0.4l-0.5-0.8h-0.3
				L148.6,205.1L148.6,205.1z M148.9,204.1c0.2,0,0.4-0.1,0.4-0.3c0-0.2-0.2-0.3-0.4-0.3h-0.4v0.5H148.9z M148.9,205.8
				c-0.9,0-1.6-0.7-1.6-1.6c0-1,0.7-1.6,1.6-1.6c0.8,0,1.6,0.7,1.6,1.6C150.5,205.2,149.7,205.8,148.9,205.8z M148.9,202.9
				c-0.7,0-1.2,0.6-1.2,1.3c0,0.7,0.5,1.3,1.2,1.3c0.7,0,1.2-0.5,1.2-1.3C150.1,203.4,149.6,202.9,148.9,202.9z"/>
		</g>
	</g>
</g>
</svg>
