<?xml version="1.0" encoding="utf-8"?>
<!-- Generator: Adobe Illustrator 18.1.1, SVG Export Plug-In . SVG Version: 6.00 Build 0)  -->
<svg version="1.1" id="Layer_1" xmlns="http://www.w3.org/2000/svg" xmlns:xlink="http://www.w3.org/1999/xlink" x="0px" y="0px"
	 viewBox="0 118 300 64.1" enable-background="new 0 118 300 64.1" xml:space="preserve">
<g opacity="0.8">
	<g>
		<path fill="#FFFFFF" d="M0,150c0-17.7,14.4-32,32-32s32,14.4,32,32s-14.4,32-32,32S0,167.7,0,150z M32,171.3
			c11.7,0,21.3-9.5,21.3-21.3s-9.5-21.3-21.3-21.3s-21.3,9.5-21.3,21.3S20.3,171.3,32,171.3z M32,160.9c6.1,0,11-5,11-11
			s-5-11-11-11c-6.1,0-11,5-11,11S25.9,160.9,32,160.9z"/>
	</g>
	<g>
		<g>
			<polygon fill="#FFFFFF" points="74.4,127 110.9,127 110.9,136.2 98.4,136.2 98.4,173.1 87.2,173.1 87.2,136.3 74.4,136.3 			"/>
			<path fill="#FFFFFF" d="M145,127c0,0,8.4,0,21.7,0c12.3,0,14,8.4,14,13.3c0,7.1-6.1,10.7-6.7,10.9c0,0,5.4,2,5.4,8.1v8.6
				c0,3.4,2.1,4.4,2.5,5.2h-8.8c-4.2-0.5-4.1-3.8-4.1-5.7V160c-0.1-1.8-0.7-3.8-4.4-3.9h-8.9v17h-10.7L145,127z M165.9,136.3h-10.3
				v9.2c0,0,8,0,9.2,0c3.2-0.1,5.7-1.5,5.7-4.6C170.5,137.4,168.4,136.3,165.9,136.3z"/>
			<polygon fill="#FFFFFF" points="227.8,127 227.8,173.1 261,173.1 261,163.6 238.6,163.6 238.6,153.3 257.7,153.3 257.7,144.6 
				238.6,144.6 238.6,136.3 261,136.3 261,127 			"/>
			<polygon fill="#FFFFFF" points="262.6,136.3 275.7,136.3 275.7,173.1 286.6,173.1 286.6,136.3 300,136.3 300,127 262.6,127 			
				"/>
			<path fill="#FFFFFF" d="M116.3,127h11.8l16.2,46.1h-11.5l-3.3-9.6h-13.6l-3.2,9.6h-11.3L116.3,127z M122.4,143.3l-3.9,11.9h8.1
				L122.4,143.3z"/>
			<path fill="#FFFFFF" d="M223.9,147.4h-19.8v8.9h9.4c0,1.9,0.3,3.7-2,6.3c-0.8,0.9-3.3,2.8-6.9,2.8c-3.1,0-5.2-0.9-7.1-2.5
				c-4.2-3.5-5.2-10.2-5.2-13.6c0-4.4,1.7-15.2,12.4-15.7c0,0,7.2-0.5,9.1,8.2h10c-0.2-4.4-5.3-16.8-19-16.8
				c-4.7,0-10.7,1.4-15.8,6.4c-3.6,3.6-6.9,9.7-6.9,18.2c0,9.3,3.4,15.3,6.5,18.6c5.5,5.8,11,6.3,13.9,6.3c2.3,0,6.7-0.3,12.3-4.1
				l1.5,2.6h7.5L223.9,147.4L223.9,147.4z"/>
		</g>
		<g>
			<path fill="#FFFFFF" d="M293.3,172h-0.5v-3.5h1.3c0.8,0,1.3,0.3,1.3,1c0,0.7-0.4,0.9-0.9,0.9l1,1.5h-0.7l-0.9-1.5h-0.5V172z
				 M293.9,170c0.4,0,0.8-0.1,0.8-0.5c0-0.4-0.4-0.5-0.8-0.5h-0.7v1H293.9z M293.9,173.4c-1.8,0-3.1-1.4-3.1-3.2
				c0-1.9,1.4-3.2,3.1-3.2c1.6,0,3.1,1.3,3.1,3.2C297,172.1,295.5,173.4,293.9,173.4z M293.9,167.6c-1.4,0-2.4,1.1-2.4,2.6
				c0,1.4,0.9,2.6,2.4,2.6c1.4,0,2.4-1,2.4-2.6S295.3,167.6,293.9,167.6z"/>
		</g>
	</g>
</g>
</svg>
